<svg width="140" height="155" viewBox="0 0 140 155" fill="none" xmlns="http://www.w3.org/2000/svg">
<path fill-rule="evenodd" clip-rule="evenodd" d="M65.9583 1.05471C68.4598 -0.348967 71.5398 -0.348967 74.0377 1.05471C86.3982 7.99207 123.594 28.8741 135.958 35.8115C138.46 37.2115 140 39.8052 140 42.6125C140 56.4872 140 98.2477 140 112.122C140 114.93 138.46 117.523 135.958 118.927C123.598 125.864 86.4019 146.746 74.0377 153.684C71.5362 155.088 68.4562 155.088 65.9583 153.684C53.5978 146.746 16.4021 125.864 4.03789 118.927C1.54 117.523 0 114.933 0 112.126C0 98.2513 0 56.4909 0 42.6162C0 39.8088 1.54 37.2152 4.04157 35.8115C16.3984 28.8741 53.6015 7.99207 65.9583 1.05471Z" fill="url(#paint0_linear_118_101)"/>
<path fill-rule="evenodd" clip-rule="evenodd" d="M1.12 115.7C0.139999 114.388 0 113.143 0 111.467C0 97.6729 0 56.152 0 42.3546C0 39.562 1.53631 36.9831 4.03052 35.5904C16.3468 28.6936 53.4172 7.93313 65.7335 1.03261C68.2277 -0.363699 71.6062 -0.334224 74.1004 1.06209C86.4167 7.95892 123.362 28.5426 135.678 35.4394C136.673 35.9994 137.432 36.6736 138.11 37.5615L1.12 115.7Z" fill="url(#paint1_linear_118_101)"/>
<path fill-rule="evenodd" clip-rule="evenodd" d="M69.9999 25.7905C98.4677 25.7905 121.579 48.9015 121.579 77.3694C121.579 105.837 98.4677 128.948 69.9999 128.948C41.532 128.948 18.421 105.837 18.421 77.3694C18.421 48.9015 41.532 25.7905 69.9999 25.7905ZM69.9999 51.5799C84.2319 51.5799 95.7893 63.1336 95.7893 77.3694C95.7893 91.6014 84.2319 103.159 69.9999 103.159C55.7678 103.159 44.2104 91.6014 44.2104 77.3694C44.2104 63.1336 55.7641 51.5799 69.9999 51.5799Z" fill="white"/>
<path fill-rule="evenodd" clip-rule="evenodd" d="M138.102 37.5983C140.003 39.3777 139.967 42.0598 139.967 44.1709C139.967 58.1524 139.849 97.9197 140 111.901C140.014 113.36 139.532 114.897 138.81 116.053L68.5004 77.3692L138.102 37.5983Z" fill="url(#paint2_linear_118_101)"/>
<g opacity="0.05">
<path d="M103.158 66.3168V73.6852H110.526V81.0536H103.158V88.422H95.7893V81.0536H88.4209V73.6852H95.7893V66.3168H103.158ZM106.842 62.6326H103.158H95.7893H92.1051V66.3168V70.001H88.4209H84.7367V73.6852V81.0536V84.7378H88.4209H92.1051V88.422V92.1062H95.7893H103.158H106.842V88.422V84.7378H110.526H114.21V81.0536V73.6852V70.001H110.526H106.842V66.3168V62.6326Z" fill="black"/>
<path d="M128.947 66.3168V73.6852H136.315V81.0536H128.947V88.422H121.579V81.0536H114.21V73.6852H121.579V66.3168H128.947ZM132.631 62.6326H128.947H121.579H117.894V66.3168V70.001H114.21H110.526V73.6852V81.0536V84.7378H114.21H117.894V88.422V92.1062H121.579H128.947H132.631V88.422V84.7378H136.315H140V81.0536V73.6852V70.001H136.315H132.631V66.3168V62.6326Z" fill="black"/>
</g>
<g opacity="0.07">
<path d="M103.158 66.3167V73.6851H110.526V81.0535H103.158V88.4219H95.7893V81.0535H88.4209V73.6851H95.7893V66.3167H103.158ZM105 64.4746H103.158H95.7893H93.9472V66.3167V71.843H88.4209H86.5788V73.6851V81.0535V82.8956H88.4209H93.9472V88.4219V90.264H95.7893H103.158H105V88.4219V82.8956H110.526H112.368V81.0535V73.6851V71.843H110.526H105V66.3167V64.4746Z" fill="black"/>
<path d="M128.947 66.3167V73.6851H136.315V81.0535H128.947V88.4219H121.579V81.0535H114.21V73.6851H121.579V66.3167H128.947ZM130.789 64.4746H128.947H121.579H119.737V66.3167V71.843H114.21H112.368V73.6851V81.0535V82.8956H114.21H119.737V88.4219V90.264H121.579H128.947H130.789V88.4219V82.8956H136.315H138.158V81.0535V73.6851V71.843H136.315H130.789V66.3167V64.4746Z" fill="black"/>
</g>
<path d="M103.158 66.3168H95.7893V73.6852H88.4209V81.0536H95.7893V88.422H103.158V81.0536H110.526V73.6852H103.158V66.3168Z" fill="white"/>
<path d="M136.315 73.6852H128.947V66.3168H121.579V73.6852H114.21V81.0536H121.579V88.422H128.947V81.0536H136.315V73.6852Z" fill="white"/>
<path opacity="0.05" d="M69.9999 25.7905C88.8924 25.7905 105.376 35.9994 114.361 51.1636L91.9872 63.9478C87.4519 56.5426 79.3098 51.5799 69.9999 51.5799C55.7641 51.5799 44.2104 63.1336 44.2104 77.3694C44.2104 91.6014 55.7678 103.159 69.9999 103.159C79.4683 103.159 87.7282 98.0304 92.2119 90.4151L114.803 102.846C105.921 118.419 89.1945 128.948 69.9999 128.948C41.532 128.948 18.421 105.837 18.421 77.3694C18.421 48.9015 41.532 25.7905 69.9999 25.7905ZM69.9999 22.1063C39.5278 22.1063 14.7368 46.8973 14.7368 77.3694C14.7368 107.841 39.5278 132.632 69.9999 132.632C89.773 132.632 108.168 121.919 118.005 104.669L119.858 101.42L116.579 99.6146L93.9877 87.1841L90.8524 85.4599L89.0361 88.5436C85.0682 95.2856 77.7735 99.4746 69.9999 99.4746C57.8125 99.4746 47.8946 89.5567 47.8946 77.3694C47.8946 65.182 57.8125 55.2641 69.9999 55.2641C77.733 55.2641 84.7772 59.2283 88.8446 65.871L90.7124 68.9215L93.8145 67.1494L116.189 54.3652L119.438 52.5084L117.53 49.2884C107.597 32.5216 89.3861 22.1063 69.9999 22.1063Z" fill="black"/>
<path opacity="0.07" d="M69.9999 25.7905C88.8924 25.7905 105.376 35.9994 114.361 51.1636L91.9872 63.9478C87.4519 56.5425 79.3098 51.5799 69.9999 51.5799C55.7641 51.5799 44.2104 63.1335 44.2104 77.3693C44.2104 91.6014 55.7678 103.159 69.9999 103.159C79.4683 103.159 87.7282 98.0303 92.2119 90.4151L114.803 102.846C105.921 118.419 89.1945 128.948 69.9999 128.948C41.532 128.948 18.421 105.837 18.421 77.3693C18.421 48.9015 41.532 25.7905 69.9999 25.7905ZM69.9999 23.9484C40.5447 23.9484 16.5789 47.9141 16.5789 77.3693C16.5789 106.825 40.5447 130.79 69.9999 130.79C89.1135 130.79 106.893 120.43 116.402 103.759L117.331 102.135L115.691 101.232L93.0998 88.8014L91.534 87.9393L90.6277 89.4793C86.3246 96.7814 78.4219 101.317 69.9999 101.317C56.7957 101.317 46.0525 90.5735 46.0525 77.3693C46.0525 64.1651 56.7957 53.422 69.9999 53.422C78.3814 53.422 86.0114 57.7178 90.4177 64.9093L91.3498 66.4346L92.9009 65.5467L115.275 52.7625L116.9 51.8341L115.946 50.2241C106.341 34.0173 88.7377 23.9484 69.9999 23.9484Z" fill="black"/>
<defs>
<linearGradient id="paint0_linear_118_101" x1="0" y1="77.3693" x2="140" y2="77.3693" gradientUnits="userSpaceOnUse">
<stop offset="0.002" stop-color="#427FDB"/>
<stop offset="0.397" stop-color="#2668CB"/>
<stop offset="0.763" stop-color="#1358BF"/>
<stop offset="1" stop-color="#0C52BB"/>
</linearGradient>
<linearGradient id="paint1_linear_118_101" x1="0" y1="57.8504" x2="138.11" y2="57.8504" gradientUnits="userSpaceOnUse">
<stop stop-color="#32BDEF"/>
<stop offset="1" stop-color="#1EA2E4"/>
</linearGradient>
<linearGradient id="paint2_linear_118_101" x1="68.5004" y1="76.824" x2="140" y2="76.824" gradientUnits="userSpaceOnUse">
<stop stop-color="#2AA4F4"/>
<stop offset="1" stop-color="#007AD9"/>
</linearGradient>
</defs>
</svg>
