<svg width="140" height="155" viewBox="0 0 140 155" fill="none" xmlns="http://www.w3.org/2000/svg">
<path fill-rule="evenodd" clip-rule="evenodd" d="M65.9583 1.05471C68.4598 -0.348967 71.5398 -0.348967 74.0377 1.05471C86.3982 7.99206 123.594 28.8741 135.958 35.8115C138.46 37.2115 140 39.8051 140 42.6125C140 56.4872 140 98.2476 140 112.122C140 114.93 138.46 117.523 135.958 118.927C123.598 125.864 86.4019 146.746 74.0377 153.684C71.5361 155.087 68.4561 155.087 65.9583 153.684C53.5978 146.746 16.4021 125.864 4.03789 118.927C1.54 117.523 0 114.933 0 112.126C0 98.2513 0 56.4909 0 42.6162C0 39.8088 1.54 37.2151 4.04157 35.8115C16.3984 28.8741 53.6014 7.99206 65.9583 1.05471Z" fill="url(#paint0_linear_118_68)"/>
<path fill-rule="evenodd" clip-rule="evenodd" d="M1.12 115.7C0.139999 114.388 0 113.143 0 111.467C0 97.6729 0 56.1519 0 42.3546C0 39.562 1.53631 36.983 4.03052 35.5904C16.3468 28.6936 53.4172 7.93312 65.7335 1.03261C68.2277 -0.363698 71.6061 -0.334224 74.1003 1.06209C86.4166 7.95891 123.362 28.5425 135.678 35.4394C136.673 35.9994 137.432 36.6736 138.11 37.5615L1.12 115.7Z" fill="url(#paint1_linear_118_68)"/>
<path fill-rule="evenodd" clip-rule="evenodd" d="M69.9998 25.7905C98.4677 25.7905 121.579 48.9015 121.579 77.3693C121.579 105.837 98.4677 128.948 69.9998 128.948C41.532 128.948 18.421 105.837 18.421 77.3693C18.421 48.9015 41.532 25.7905 69.9998 25.7905ZM69.9998 51.5799C84.2319 51.5799 95.7893 63.1336 95.7893 77.3693C95.7893 91.6014 84.2319 103.159 69.9998 103.159C55.7678 103.159 44.2104 91.6014 44.2104 77.3693C44.2104 63.1336 55.7641 51.5799 69.9998 51.5799Z" fill="white"/>
<path fill-rule="evenodd" clip-rule="evenodd" d="M138.102 37.5984C140.003 39.3779 139.967 42.06 139.967 44.171C139.967 58.1525 139.849 97.9198 140 111.901C140.014 113.36 139.532 114.897 138.81 116.053L68.5004 77.3693L138.102 37.5984Z" fill="url(#paint2_linear_118_68)"/>
<path opacity="0.05" d="M69.9998 25.7905C88.8924 25.7905 105.376 35.9994 114.361 51.1636L91.9872 63.9478C87.4519 56.5426 79.3098 51.5799 69.9998 51.5799C55.7641 51.5799 44.2104 63.1336 44.2104 77.3693C44.2104 91.6014 55.7678 103.159 69.9998 103.159C79.4682 103.159 87.7282 98.0303 92.2119 90.4151L114.803 102.846C105.921 118.419 89.1945 128.948 69.9998 128.948C41.532 128.948 18.421 105.837 18.421 77.3693C18.421 48.9015 41.532 25.7905 69.9998 25.7905ZM69.9998 22.1063C39.5278 22.1063 14.7368 46.8973 14.7368 77.3693C14.7368 107.841 39.5278 132.632 69.9998 132.632C89.7729 132.632 108.168 121.919 118.005 104.669L119.858 101.42L116.579 99.6145L93.9877 87.1841L90.8524 85.4598L89.0361 88.5435C85.0682 95.2856 77.7735 99.4745 69.9998 99.4745C57.8125 99.4745 47.8946 89.5567 47.8946 77.3693C47.8946 65.182 57.8125 55.2641 69.9998 55.2641C77.733 55.2641 84.7772 59.2283 88.8445 65.8709L90.7124 68.9215L93.8145 67.1494L116.189 54.3652L119.438 52.5084L117.53 49.2884C107.597 32.5216 89.3861 22.1063 69.9998 22.1063Z" fill="black"/>
<path opacity="0.07" d="M69.9998 25.7905C88.8924 25.7905 105.376 35.9994 114.361 51.1636L91.9872 63.9477C87.4519 56.5425 79.3098 51.5799 69.9998 51.5799C55.7641 51.5799 44.2104 63.1335 44.2104 77.3693C44.2104 91.6013 55.7678 103.159 69.9998 103.159C79.4682 103.159 87.7282 98.0303 92.2119 90.415L114.803 102.846C105.921 118.419 89.1945 128.948 69.9998 128.948C41.532 128.948 18.421 105.837 18.421 77.3693C18.421 48.9015 41.532 25.7905 69.9998 25.7905ZM69.9998 23.9484C40.5446 23.9484 16.5789 47.9141 16.5789 77.3693C16.5789 106.824 40.5446 130.79 69.9998 130.79C89.1135 130.79 106.893 120.43 116.402 103.759L117.331 102.134L115.691 101.232L93.0998 88.8014L91.534 87.9393L90.6277 89.4793C86.3245 96.7813 78.4219 101.317 69.9998 101.317C56.7957 101.317 46.0525 90.5735 46.0525 77.3693C46.0525 64.1651 56.7957 53.422 69.9998 53.422C78.3814 53.422 86.0114 57.7178 90.4177 64.9093L91.3498 66.4346L92.9008 65.5467L115.275 52.7625L116.9 51.8341L115.946 50.2241C106.341 34.0173 88.7377 23.9484 69.9998 23.9484Z" fill="black"/>
<defs>
<linearGradient id="paint0_linear_118_68" x1="64.3998" y1="61.9803" x2="98.8582" y2="156.653" gradientUnits="userSpaceOnUse">
<stop stop-color="#3940A4"/>
<stop offset="1" stop-color="#293091"/>
</linearGradient>
<linearGradient id="paint1_linear_118_68" x1="42.1104" y1="1.4084" x2="79.8993" y2="105.229" gradientUnits="userSpaceOnUse">
<stop stop-color="#7B83EB"/>
<stop offset="1" stop-color="#5961C3"/>
</linearGradient>
<linearGradient id="paint2_linear_118_68" x1="95.9035" y1="36.3458" x2="127.967" y2="124.442" gradientUnits="userSpaceOnUse">
<stop stop-color="#5C65D6"/>
<stop offset="0.999" stop-color="#464EB0"/>
</linearGradient>
</defs>
</svg>
